<mxfile host="Electron" modified="2024-10-08T16:46:22.721Z" agent="Mozilla/5.0 (Windows NT 10.0; Win64; x64) AppleWebKit/537.36 (KHTML, like Gecko) draw.io/24.4.0 Chrome/120.0.6099.109 Electron/28.1.0 Safari/537.36" etag="fbfH-9TGavthJH6JYHUU" version="24.4.0" type="device">
  <diagram name="Page-1" id="Z3fFYOLJukUrMZ13ezNF">
    <mxGraphModel dx="2027" dy="675" grid="1" gridSize="10" guides="1" tooltips="1" connect="1" arrows="1" fold="1" page="1" pageScale="1" pageWidth="850" pageHeight="1100" math="0" shadow="0">
      <root>
        <mxCell id="0" />
        <mxCell id="1" parent="0" />
        <mxCell id="HjraHUxFYyheh4qPXSw_-5" value="" style="endArrow=none;dashed=1;html=1;dashPattern=1 3;strokeWidth=2;rounded=0;" parent="1" edge="1">
          <mxGeometry width="50" height="50" relative="1" as="geometry">
            <mxPoint x="320" y="1200" as="sourcePoint" />
            <mxPoint x="320" y="680" as="targetPoint" />
          </mxGeometry>
        </mxCell>
        <mxCell id="HjraHUxFYyheh4qPXSw_-10" value="" style="endArrow=none;dashed=1;html=1;dashPattern=1 3;strokeWidth=2;rounded=0;" parent="1" edge="1">
          <mxGeometry width="50" height="50" relative="1" as="geometry">
            <mxPoint x="160" y="1200" as="sourcePoint" />
            <mxPoint x="160" y="680" as="targetPoint" />
          </mxGeometry>
        </mxCell>
        <mxCell id="HjraHUxFYyheh4qPXSw_-31" value="" style="endArrow=none;dashed=1;html=1;dashPattern=1 3;strokeWidth=2;rounded=0;" parent="1" edge="1">
          <mxGeometry width="50" height="50" relative="1" as="geometry">
            <mxPoint x="480" y="1200" as="sourcePoint" />
            <mxPoint x="480" y="680" as="targetPoint" />
          </mxGeometry>
        </mxCell>
        <mxCell id="HjraHUxFYyheh4qPXSw_-45" value="" style="endArrow=none;dashed=1;html=1;dashPattern=1 3;strokeWidth=2;rounded=0;" parent="1" edge="1">
          <mxGeometry width="50" height="50" relative="1" as="geometry">
            <mxPoint x="640" y="1200" as="sourcePoint" />
            <mxPoint x="640" y="680" as="targetPoint" />
          </mxGeometry>
        </mxCell>
        <mxCell id="fKCrSUPoXyvMOgsNg87t-11" style="edgeStyle=orthogonalEdgeStyle;rounded=0;orthogonalLoop=1;jettySize=auto;html=1;entryX=0;entryY=0.5;entryDx=0;entryDy=0;" edge="1" parent="1" source="fKCrSUPoXyvMOgsNg87t-1" target="fKCrSUPoXyvMOgsNg87t-6">
          <mxGeometry relative="1" as="geometry">
            <Array as="points">
              <mxPoint x="180" y="940" />
              <mxPoint x="180" y="820" />
              <mxPoint x="200" y="820" />
            </Array>
          </mxGeometry>
        </mxCell>
        <mxCell id="fKCrSUPoXyvMOgsNg87t-17" style="edgeStyle=orthogonalEdgeStyle;rounded=0;orthogonalLoop=1;jettySize=auto;html=1;entryX=0;entryY=0.5;entryDx=0;entryDy=0;" edge="1" parent="1" source="fKCrSUPoXyvMOgsNg87t-1" target="fKCrSUPoXyvMOgsNg87t-13">
          <mxGeometry relative="1" as="geometry">
            <Array as="points">
              <mxPoint x="180" y="940" />
              <mxPoint x="180" y="900" />
            </Array>
          </mxGeometry>
        </mxCell>
        <mxCell id="fKCrSUPoXyvMOgsNg87t-18" style="edgeStyle=orthogonalEdgeStyle;rounded=0;orthogonalLoop=1;jettySize=auto;html=1;entryX=0;entryY=0.5;entryDx=0;entryDy=0;" edge="1" parent="1" source="fKCrSUPoXyvMOgsNg87t-1" target="fKCrSUPoXyvMOgsNg87t-14">
          <mxGeometry relative="1" as="geometry" />
        </mxCell>
        <mxCell id="fKCrSUPoXyvMOgsNg87t-19" style="edgeStyle=orthogonalEdgeStyle;rounded=0;orthogonalLoop=1;jettySize=auto;html=1;entryX=0;entryY=0.5;entryDx=0;entryDy=0;" edge="1" parent="1" source="fKCrSUPoXyvMOgsNg87t-1" target="fKCrSUPoXyvMOgsNg87t-15">
          <mxGeometry relative="1" as="geometry">
            <Array as="points">
              <mxPoint x="180" y="940" />
              <mxPoint x="180" y="980" />
            </Array>
          </mxGeometry>
        </mxCell>
        <mxCell id="fKCrSUPoXyvMOgsNg87t-20" style="edgeStyle=orthogonalEdgeStyle;rounded=0;orthogonalLoop=1;jettySize=auto;html=1;entryX=0;entryY=0.5;entryDx=0;entryDy=0;" edge="1" parent="1" source="fKCrSUPoXyvMOgsNg87t-1" target="fKCrSUPoXyvMOgsNg87t-16">
          <mxGeometry relative="1" as="geometry">
            <Array as="points">
              <mxPoint x="180" y="940" />
              <mxPoint x="180" y="1020" />
            </Array>
          </mxGeometry>
        </mxCell>
        <mxCell id="fKCrSUPoXyvMOgsNg87t-37" style="edgeStyle=orthogonalEdgeStyle;rounded=0;orthogonalLoop=1;jettySize=auto;html=1;entryX=0;entryY=0.5;entryDx=0;entryDy=0;" edge="1" parent="1" source="fKCrSUPoXyvMOgsNg87t-6" target="fKCrSUPoXyvMOgsNg87t-30">
          <mxGeometry relative="1" as="geometry">
            <Array as="points">
              <mxPoint x="285" y="820" />
            </Array>
          </mxGeometry>
        </mxCell>
        <mxCell id="fKCrSUPoXyvMOgsNg87t-6" value="L1-BTB" style="rounded=1;whiteSpace=wrap;html=1;" vertex="1" parent="1">
          <mxGeometry x="200" y="789.88" width="80" height="59.75" as="geometry" />
        </mxCell>
        <mxCell id="fKCrSUPoXyvMOgsNg87t-9" style="edgeStyle=orthogonalEdgeStyle;rounded=0;orthogonalLoop=1;jettySize=auto;html=1;exitX=1;exitY=0.5;exitDx=0;exitDy=-5;exitPerimeter=0;entryX=0;entryY=0.5;entryDx=0;entryDy=0;" edge="1" parent="1" source="fKCrSUPoXyvMOgsNg87t-8" target="fKCrSUPoXyvMOgsNg87t-1">
          <mxGeometry relative="1" as="geometry" />
        </mxCell>
        <mxCell id="fKCrSUPoXyvMOgsNg87t-8" value="Mux" style="shadow=0;dashed=0;align=center;html=1;strokeWidth=1;shape=mxgraph.electrical.abstract.mux2;whiteSpace=wrap;" vertex="1" parent="1">
          <mxGeometry x="30" y="879.75" width="80" height="130.25" as="geometry" />
        </mxCell>
        <mxCell id="fKCrSUPoXyvMOgsNg87t-12" style="edgeStyle=orthogonalEdgeStyle;rounded=0;orthogonalLoop=1;jettySize=auto;html=1;entryX=0;entryY=0.6578694817658349;entryDx=0;entryDy=3;entryPerimeter=0;" edge="1" parent="1" source="fKCrSUPoXyvMOgsNg87t-6" target="fKCrSUPoXyvMOgsNg87t-8">
          <mxGeometry relative="1" as="geometry">
            <Array as="points">
              <mxPoint x="220" y="740" />
              <mxPoint y="740" />
              <mxPoint y="968" />
            </Array>
          </mxGeometry>
        </mxCell>
        <mxCell id="fKCrSUPoXyvMOgsNg87t-48" style="edgeStyle=orthogonalEdgeStyle;rounded=0;orthogonalLoop=1;jettySize=auto;html=1;entryX=0;entryY=0.5;entryDx=0;entryDy=0;" edge="1" parent="1" source="fKCrSUPoXyvMOgsNg87t-13" target="fKCrSUPoXyvMOgsNg87t-26">
          <mxGeometry relative="1" as="geometry" />
        </mxCell>
        <mxCell id="fKCrSUPoXyvMOgsNg87t-13" value="TAGE-T1" style="rounded=0;whiteSpace=wrap;html=1;" vertex="1" parent="1">
          <mxGeometry x="200" y="879.75" width="130" height="40" as="geometry" />
        </mxCell>
        <mxCell id="fKCrSUPoXyvMOgsNg87t-49" style="edgeStyle=orthogonalEdgeStyle;rounded=0;orthogonalLoop=1;jettySize=auto;html=1;entryX=0;entryY=0.5;entryDx=0;entryDy=0;" edge="1" parent="1" source="fKCrSUPoXyvMOgsNg87t-14" target="fKCrSUPoXyvMOgsNg87t-26">
          <mxGeometry relative="1" as="geometry" />
        </mxCell>
        <mxCell id="fKCrSUPoXyvMOgsNg87t-14" value="TAGE-T2" style="rounded=0;whiteSpace=wrap;html=1;" vertex="1" parent="1">
          <mxGeometry x="200" y="919.75" width="130" height="40.25" as="geometry" />
        </mxCell>
        <mxCell id="fKCrSUPoXyvMOgsNg87t-50" style="edgeStyle=orthogonalEdgeStyle;rounded=0;orthogonalLoop=1;jettySize=auto;html=1;entryX=0;entryY=0.5;entryDx=0;entryDy=0;" edge="1" parent="1" source="fKCrSUPoXyvMOgsNg87t-15" target="fKCrSUPoXyvMOgsNg87t-26">
          <mxGeometry relative="1" as="geometry" />
        </mxCell>
        <mxCell id="fKCrSUPoXyvMOgsNg87t-15" value="TAGE-T3" style="rounded=0;whiteSpace=wrap;html=1;" vertex="1" parent="1">
          <mxGeometry x="200" y="960" width="130" height="40" as="geometry" />
        </mxCell>
        <mxCell id="fKCrSUPoXyvMOgsNg87t-51" style="edgeStyle=orthogonalEdgeStyle;rounded=0;orthogonalLoop=1;jettySize=auto;html=1;entryX=0;entryY=0.5;entryDx=0;entryDy=0;" edge="1" parent="1" source="fKCrSUPoXyvMOgsNg87t-16" target="fKCrSUPoXyvMOgsNg87t-26">
          <mxGeometry relative="1" as="geometry" />
        </mxCell>
        <mxCell id="fKCrSUPoXyvMOgsNg87t-16" value="TAGE-T4" style="rounded=0;whiteSpace=wrap;html=1;" vertex="1" parent="1">
          <mxGeometry x="200" y="1000" width="130" height="40.25" as="geometry" />
        </mxCell>
        <mxCell id="fKCrSUPoXyvMOgsNg87t-22" value="" style="triangle;whiteSpace=wrap;html=1;rotation=-90;" vertex="1" parent="1">
          <mxGeometry x="315" y="988" width="10" height="14" as="geometry" />
        </mxCell>
        <mxCell id="fKCrSUPoXyvMOgsNg87t-23" value="" style="triangle;whiteSpace=wrap;html=1;rotation=-90;" vertex="1" parent="1">
          <mxGeometry x="315" y="948" width="10" height="14" as="geometry" />
        </mxCell>
        <mxCell id="fKCrSUPoXyvMOgsNg87t-24" value="" style="triangle;whiteSpace=wrap;html=1;rotation=-90;" vertex="1" parent="1">
          <mxGeometry x="315" y="907.75" width="10" height="14" as="geometry" />
        </mxCell>
        <mxCell id="fKCrSUPoXyvMOgsNg87t-25" value="" style="triangle;whiteSpace=wrap;html=1;rotation=-90;" vertex="1" parent="1">
          <mxGeometry x="315" y="1028.25" width="10" height="14" as="geometry" />
        </mxCell>
        <mxCell id="fKCrSUPoXyvMOgsNg87t-46" style="edgeStyle=orthogonalEdgeStyle;rounded=0;orthogonalLoop=1;jettySize=auto;html=1;entryX=0;entryY=0.5;entryDx=0;entryDy=0;" edge="1" parent="1" source="fKCrSUPoXyvMOgsNg87t-26" target="fKCrSUPoXyvMOgsNg87t-44">
          <mxGeometry relative="1" as="geometry">
            <Array as="points">
              <mxPoint x="430" y="940" />
              <mxPoint x="430" y="940" />
            </Array>
          </mxGeometry>
        </mxCell>
        <mxCell id="fKCrSUPoXyvMOgsNg87t-26" value="TAGE" style="rounded=1;whiteSpace=wrap;html=1;" vertex="1" parent="1">
          <mxGeometry x="370" y="879.75" width="60" height="160.25" as="geometry" />
        </mxCell>
        <mxCell id="fKCrSUPoXyvMOgsNg87t-28" value="" style="group" vertex="1" connectable="0" parent="1">
          <mxGeometry x="150" y="840.25" width="20" height="279.5" as="geometry" />
        </mxCell>
        <mxCell id="fKCrSUPoXyvMOgsNg87t-1" value="F&lt;div&gt;E&lt;/div&gt;&lt;div&gt;T&lt;/div&gt;&lt;div&gt;C&lt;/div&gt;&lt;div&gt;H&lt;/div&gt;&lt;div&gt;|&lt;/div&gt;&lt;div&gt;R&lt;/div&gt;&lt;div&gt;E&lt;/div&gt;&lt;div&gt;Q&lt;/div&gt;" style="rounded=0;html=1;whiteSpace=wrap;fontColor=default;labelBackgroundColor=none;labelBorderColor=none;textShadow=0;horizontal=1;verticalAlign=middle;align=center;labelPosition=center;verticalLabelPosition=middle;" vertex="1" parent="fKCrSUPoXyvMOgsNg87t-28">
          <mxGeometry y="-80" width="20" height="359.5" as="geometry" />
        </mxCell>
        <mxCell id="fKCrSUPoXyvMOgsNg87t-2" value="" style="triangle;whiteSpace=wrap;html=1;rotation=-90;" vertex="1" parent="fKCrSUPoXyvMOgsNg87t-28">
          <mxGeometry x="5" y="267" width="10" height="15" as="geometry" />
        </mxCell>
        <mxCell id="fKCrSUPoXyvMOgsNg87t-39" style="edgeStyle=orthogonalEdgeStyle;rounded=0;orthogonalLoop=1;jettySize=auto;html=1;entryX=0;entryY=0.5;entryDx=0;entryDy=0;" edge="1" parent="1" source="fKCrSUPoXyvMOgsNg87t-30" target="fKCrSUPoXyvMOgsNg87t-38">
          <mxGeometry relative="1" as="geometry" />
        </mxCell>
        <mxCell id="fKCrSUPoXyvMOgsNg87t-30" value="" style="rounded=0;html=1;whiteSpace=wrap;fontColor=default;labelBackgroundColor=none;labelBorderColor=none;textShadow=0;horizontal=1;verticalAlign=middle;align=center;labelPosition=center;verticalLabelPosition=middle;" vertex="1" parent="1">
          <mxGeometry x="310" y="760" width="20" height="119.5" as="geometry" />
        </mxCell>
        <mxCell id="fKCrSUPoXyvMOgsNg87t-31" value="" style="triangle;whiteSpace=wrap;html=1;rotation=-90;" vertex="1" parent="1">
          <mxGeometry x="315" y="867" width="10" height="15" as="geometry" />
        </mxCell>
        <mxCell id="fKCrSUPoXyvMOgsNg87t-47" style="edgeStyle=orthogonalEdgeStyle;rounded=0;orthogonalLoop=1;jettySize=auto;html=1;entryX=0.5;entryY=0;entryDx=0;entryDy=0;" edge="1" parent="1" source="fKCrSUPoXyvMOgsNg87t-38" target="fKCrSUPoXyvMOgsNg87t-26">
          <mxGeometry relative="1" as="geometry" />
        </mxCell>
        <mxCell id="fKCrSUPoXyvMOgsNg87t-38" value="Compare" style="rounded=1;whiteSpace=wrap;html=1;" vertex="1" parent="1">
          <mxGeometry x="360" y="789.88" width="80" height="59.75" as="geometry" />
        </mxCell>
        <mxCell id="fKCrSUPoXyvMOgsNg87t-44" value="B&lt;div&gt;R&lt;/div&gt;&lt;div&gt;I&lt;/div&gt;&lt;div&gt;N&lt;/div&gt;&lt;div&gt;F&lt;/div&gt;&lt;div&gt;O&lt;/div&gt;&lt;div&gt;&lt;br&gt;&lt;/div&gt;&lt;div&gt;&amp;amp;&lt;/div&gt;&lt;div&gt;&lt;br&gt;&lt;/div&gt;&lt;div&gt;F&lt;/div&gt;&lt;div&gt;E&lt;/div&gt;&lt;div&gt;T&lt;/div&gt;&lt;div&gt;C&lt;/div&gt;&lt;div&gt;H&lt;/div&gt;&lt;div&gt;R&lt;/div&gt;&lt;div&gt;E&lt;/div&gt;&lt;div&gt;Q&lt;/div&gt;" style="rounded=0;html=1;whiteSpace=wrap;fontColor=default;labelBackgroundColor=none;labelBorderColor=none;textShadow=0;horizontal=1;verticalAlign=middle;align=center;labelPosition=center;verticalLabelPosition=middle;" vertex="1" parent="1">
          <mxGeometry x="470" y="760" width="20" height="359.5" as="geometry" />
        </mxCell>
        <mxCell id="fKCrSUPoXyvMOgsNg87t-45" value="" style="triangle;whiteSpace=wrap;html=1;rotation=-90;" vertex="1" parent="1">
          <mxGeometry x="475" y="1107" width="10" height="15" as="geometry" />
        </mxCell>
      </root>
    </mxGraphModel>
  </diagram>
</mxfile>
